<svg id="Layer_1" data-name="Layer 1" xmlns="http://www.w3.org/2000/svg" viewBox="0 0 303.02 83.01"><defs><style>.cls-1{fill:#ff644a;fill-rule:evenodd;}.cls-2{fill:#fff;}</style></defs><title>newjrzco_logo</title><polygon class="cls-1" points="63.38 17.04 63.38 83.01 0 75.47 0 16.73 19.5 16.73 19.5 62.57 43.88 66.71 43.89 66.71 43.89 17.04 63.38 17.04"/><path class="cls-2" d="M80.13,70.23a7.78,7.78,0,0,1,3-3,8.53,8.53,0,0,1,4.28-1.08,8.4,8.4,0,0,1,4.86,1.42A7.48,7.48,0,0,1,95.2,71.5H91.38a4,4,0,0,0-1.6-1.78,4.76,4.76,0,0,0-2.39-.59,4.9,4.9,0,0,0-2.57.67,4.69,4.69,0,0,0-1.75,1.91,6.94,6.94,0,0,0,0,5.78,4.59,4.59,0,0,0,1.75,1.92,4.91,4.91,0,0,0,2.57.68,4.67,4.67,0,0,0,2.39-.61,4,4,0,0,0,1.6-1.79H95.2a7.42,7.42,0,0,1-2.91,4,9.07,9.07,0,0,1-9.15.33,7.82,7.82,0,0,1-3-3A8.54,8.54,0,0,1,79,74.61,8.64,8.64,0,0,1,80.13,70.23Z" transform="translate(0 -0.06)"/><path class="cls-2" d="M115.69,82a8.07,8.07,0,0,1-3.09-3,9,9,0,0,1,0-8.73,8.15,8.15,0,0,1,3.09-3,8.93,8.93,0,0,1,8.55,0,8.14,8.14,0,0,1,3.06,3,9.07,9.07,0,0,1,0,8.73,8.09,8.09,0,0,1-3.07,3,8.91,8.91,0,0,1-8.54,0Zm6.9-2.55a4.63,4.63,0,0,0,1.78-1.93,6.44,6.44,0,0,0,.64-2.92,6.35,6.35,0,0,0-.64-2.9,4.57,4.57,0,0,0-1.78-1.91,5.16,5.16,0,0,0-2.63-.66,5.24,5.24,0,0,0-2.65.66,4.53,4.53,0,0,0-1.79,1.91,6.23,6.23,0,0,0-.64,2.9,6.31,6.31,0,0,0,.64,2.92,4.58,4.58,0,0,0,1.79,1.93,5.15,5.15,0,0,0,2.65.68A5.07,5.07,0,0,0,122.59,79.43Z" transform="translate(0 -0.06)"/><path class="cls-2" d="M159.28,82.91H156l-7.52-11.36V82.91h-3.32V66.33h3.32L156,77.71V66.33h3.32Z" transform="translate(0 -0.06)"/><path class="cls-2" d="M177.08,70.23a7.78,7.78,0,0,1,3-3,8.53,8.53,0,0,1,4.28-1.08,8.4,8.4,0,0,1,4.86,1.42,7.48,7.48,0,0,1,2.92,3.94h-3.82a4,4,0,0,0-1.6-1.78,4.76,4.76,0,0,0-2.39-.59,4.9,4.9,0,0,0-2.57.67A4.62,4.62,0,0,0,180,71.71a6.94,6.94,0,0,0,0,5.78,4.53,4.53,0,0,0,1.75,1.92,4.91,4.91,0,0,0,2.57.68,4.67,4.67,0,0,0,2.39-.61,4,4,0,0,0,1.6-1.79h3.82a7.47,7.47,0,0,1-2.91,4,9.07,9.07,0,0,1-9.15.33,7.82,7.82,0,0,1-3-3A8.54,8.54,0,0,1,176,74.61,8.64,8.64,0,0,1,177.08,70.23Z" transform="translate(0 -0.06)"/><path class="cls-2" d="M217.76,82.91l-3.65-6.45h-1.57v6.45h-3.32V66.35h6.22a7.25,7.25,0,0,1,3.27.68,4.72,4.72,0,0,1,2,1.83,5,5,0,0,1,.67,2.57,4.8,4.8,0,0,1-3.77,4.77l4,6.71ZM212.54,74h2.78a2.73,2.73,0,0,0,2-.66A2.41,2.41,0,0,0,218,71.5a2.34,2.34,0,0,0-.67-1.77,2.86,2.86,0,0,0-2-.62h-2.78Z" transform="translate(0 -0.06)"/><path class="cls-2" d="M242,69v4.15h5.58v2.64H242V80.2h6.29v2.71h-9.61V66.33h9.61V69Z" transform="translate(0 -0.06)"/><path class="cls-2" d="M276.76,66.35V69h-4.41V82.91H269V69h-4.41V66.35Z" transform="translate(0 -0.06)"/><path class="cls-2" d="M296.73,69v4.15h5.58v2.64h-5.58V80.2H303v2.71h-9.61V66.33H303V69Z" transform="translate(0 -0.06)"/><path class="cls-2" d="M107.37,16.38V44.84q0,6.61-3.72,10.19t-10,3.57Q87,58.6,83,54.85T79,44.19H89.15a6.21,6.21,0,0,0,1.07,4,3.74,3.74,0,0,0,3.1,1.34,3.53,3.53,0,0,0,2.85-1.19,5.2,5.2,0,0,0,1-3.46V16.38Z" transform="translate(0 -0.06)"/><path class="cls-2" d="M125.59,16.38v25a8.29,8.29,0,0,0,1.85,5.78,7,7,0,0,0,5.42,2,7.18,7.18,0,0,0,5.48-2,8.12,8.12,0,0,0,1.9-5.78v-25h10.19v25A17.73,17.73,0,0,1,148,50.8a15.25,15.25,0,0,1-6.4,5.83,20.14,20.14,0,0,1-9,2,19.58,19.58,0,0,1-8.84-1.94,14.38,14.38,0,0,1-6.17-5.83,18.63,18.63,0,0,1-2.26-9.5V16.38Z" transform="translate(0 -0.06)"/><path class="cls-2" d="M183.59,50.8H168l-2.5,7.38H154.83L170,16.38h11.79l15.13,41.8H186.1ZM182.76,8l-14.35,6V7L182.76.06Zm-1.79,35-5.18-15.31-5.12,15.31Z" transform="translate(0 -0.06)"/><path class="cls-2" d="M222.78,58.18,214.09,42.4h-2.45V58.18H201.46V16.38h17.09A18.83,18.83,0,0,1,227,18.1a11.93,11.93,0,0,1,5.21,4.74,13.22,13.22,0,0,1,1.73,6.7A12.42,12.42,0,0,1,231.56,37a12.64,12.64,0,0,1-6.93,4.65l9.64,16.55Zm-11.14-23H218a5.82,5.82,0,0,0,4.2-1.37A5.21,5.21,0,0,0,223.55,30a5,5,0,0,0-1.39-3.75,5.82,5.82,0,0,0-4.2-1.37h-6.32Z" transform="translate(0 -0.06)"/><path class="cls-2" d="M250.47,24.54V33h13.64v7.86H250.47V50H265.9v8.16H240.29V16.38H265.9v8.16Z" transform="translate(0 -0.06)"/><path class="cls-2" d="M283.34,49.85h18v8.33H271.79V50.44l17.87-25.73H271.79V16.38h29.54v7.74Z" transform="translate(0 -0.06)"/></svg>